<svg width="200" height="200" viewBox="0 0 200 200" fill="none" xmlns="http://www.w3.org/2000/svg">
<rect width="200" height="200" fill="black"/>
<path d="M7 110V107H4V104H10V107H19V101H7V98H4V92H7V89H22V92H25V95H19V92H10V98H22V101H25V107H22V110H7ZM37 110V92H31V89H49V92H43V110H37ZM52 110V89H70V92H73V101H67V104H70V107H73V110H64V107H61V104H58V110H52ZM58 101H64V98H67V92H58V101ZM85 110V101H82V98H79V89H85V98H91V89H97V98H94V101H91V110H85ZM100 110V89H106V98H109V95H112V92H115V89H121V92H118V95H115V98H112V101H115V104H118V107H121V110H112V107H109V104H106V110H100ZM124 110V89H145V92H130V98H142V101H130V107H145V110H124ZM148 110V89H166V92H169V101H163V104H166V107H169V110H160V107H157V104H154V110H148ZM154 101H160V98H163V92H154V101ZM175 110V107H172V104H178V107H187V101H175V98H172V92H175V89H190V92H193V95H187V92H178V98H190V101H193V107H190V110H175Z" fill="white"/>
</svg>
